<svg width="128" height="128" viewBox="0 0 128 128" fill="none" xmlns="http://www.w3.org/2000/svg">
<path d="M0 64C0 28.6538 28.6538 0 64 0C99.3462 0 128 28.6538 128 64C128 99.3462 99.3462 128 64 128C28.6538 128 0 99.3462 0 64Z" fill="#2BAB6F"/>
<path d="M64.352 90.896C61.28 90.896 58.4853 90.448 55.968 89.552C53.4507 88.656 51.2533 87.3973 49.376 85.776C47.5413 84.1547 46.112 82.2347 45.088 80.016C44.1067 77.7973 43.616 75.344 43.616 72.656V50.448H53.984V72.016C53.984 74.1067 54.432 75.9413 55.328 77.52C56.224 79.0987 57.4613 80.336 59.04 81.232C60.6187 82.0853 62.3893 82.512 64.352 82.512C66.3573 82.512 68.128 82.064 69.664 81.168C71.2427 80.272 72.48 79.0347 73.376 77.456C74.3147 75.8347 74.784 73.9787 74.784 71.888V50.448H85.152V72.656C85.152 75.344 84.6187 77.7973 83.552 80.016C82.528 82.2347 81.056 84.1547 79.136 85.776C77.2587 87.3973 75.0613 88.656 72.544 89.552C70.0267 90.448 67.296 90.896 64.352 90.896ZM36.448 54.224V46.096H60.256V54.224H36.448ZM68.384 54.224V46.096H92.256V54.224H68.384Z" fill="white"/>
</svg>
